<mxfile host="app.diagrams.net" modified="2024-07-25T17:03:17.937Z" agent="Mozilla/5.0 (Windows NT 10.0; Win64; x64) AppleWebKit/537.36 (KHTML, like Gecko) Chrome/126.0.0.0 Safari/537.36" etag="ddibbNpDU0YDds3v95vV" version="24.6.5" type="device">
  <diagram name="Page-1" id="zCJOOwEvWnlqeo-MKQPp">
    <mxGraphModel dx="1674" dy="772" grid="1" gridSize="10" guides="1" tooltips="1" connect="1" arrows="1" fold="1" page="1" pageScale="1" pageWidth="850" pageHeight="1100" math="0" shadow="0">
      <root>
        <mxCell id="0" />
        <mxCell id="1" parent="0" />
        <mxCell id="24lvV09j2VHUAjs1KWGv-1" value="Start" style="rounded=1;whiteSpace=wrap;html=1;" parent="1" vertex="1">
          <mxGeometry x="41.25" y="90" width="120" height="60" as="geometry" />
        </mxCell>
        <mxCell id="24lvV09j2VHUAjs1KWGv-2" value="End" style="rounded=1;whiteSpace=wrap;html=1;" parent="1" vertex="1">
          <mxGeometry x="250" y="540" width="120" height="60" as="geometry" />
        </mxCell>
        <mxCell id="24lvV09j2VHUAjs1KWGv-7" value="sum all the digits of a number" style="text;html=1;align=center;verticalAlign=middle;whiteSpace=wrap;rounded=0;" parent="1" vertex="1">
          <mxGeometry x="70" y="30" width="390" height="30" as="geometry" />
        </mxCell>
        <mxCell id="2i2Ug3EKJSbQpZiKw1Ly-1" value="" style="edgeStyle=orthogonalEdgeStyle;rounded=0;orthogonalLoop=1;jettySize=auto;html=1;entryX=0.5;entryY=0;entryDx=0;entryDy=0;" parent="1" source="24lvV09j2VHUAjs1KWGv-1" target="24lvV09j2VHUAjs1KWGv-24" edge="1">
          <mxGeometry relative="1" as="geometry">
            <mxPoint x="100" y="150" as="sourcePoint" />
            <mxPoint x="100" y="550" as="targetPoint" />
          </mxGeometry>
        </mxCell>
        <mxCell id="24lvV09j2VHUAjs1KWGv-24" value="num = input" style="shape=card;whiteSpace=wrap;html=1;" parent="1" vertex="1">
          <mxGeometry x="51.25" y="180" width="97.5" height="60" as="geometry" />
        </mxCell>
        <mxCell id="2i2Ug3EKJSbQpZiKw1Ly-2" value="" style="edgeStyle=orthogonalEdgeStyle;rounded=0;orthogonalLoop=1;jettySize=auto;html=1;entryX=0.5;entryY=0;entryDx=0;entryDy=0;" parent="1" source="24lvV09j2VHUAjs1KWGv-24" target="dJ0o7yA8VT7SD2CRMR3X-1" edge="1">
          <mxGeometry relative="1" as="geometry">
            <mxPoint x="101" y="270" as="sourcePoint" />
            <mxPoint x="100" y="390" as="targetPoint" />
            <Array as="points" />
          </mxGeometry>
        </mxCell>
        <mxCell id="dJ0o7yA8VT7SD2CRMR3X-7" style="edgeStyle=orthogonalEdgeStyle;rounded=0;orthogonalLoop=1;jettySize=auto;html=1;entryX=0.45;entryY=-0.05;entryDx=0;entryDy=0;entryPerimeter=0;" edge="1" parent="1" source="dJ0o7yA8VT7SD2CRMR3X-1" target="24lvV09j2VHUAjs1KWGv-2">
          <mxGeometry relative="1" as="geometry">
            <mxPoint x="310" y="530" as="targetPoint" />
          </mxGeometry>
        </mxCell>
        <mxCell id="dJ0o7yA8VT7SD2CRMR3X-8" value="" style="edgeStyle=orthogonalEdgeStyle;rounded=0;orthogonalLoop=1;jettySize=auto;html=1;" edge="1" parent="1" source="dJ0o7yA8VT7SD2CRMR3X-1" target="dJ0o7yA8VT7SD2CRMR3X-3">
          <mxGeometry relative="1" as="geometry" />
        </mxCell>
        <mxCell id="dJ0o7yA8VT7SD2CRMR3X-1" value="num &amp;gt; 0" style="ellipse;whiteSpace=wrap;html=1;" vertex="1" parent="1">
          <mxGeometry x="41" y="350" width="120" height="80" as="geometry" />
        </mxCell>
        <mxCell id="dJ0o7yA8VT7SD2CRMR3X-2" value="sum = 0" style="rounded=0;whiteSpace=wrap;html=1;" vertex="1" parent="1">
          <mxGeometry x="60.75" y="270" width="81" height="50" as="geometry" />
        </mxCell>
        <mxCell id="dJ0o7yA8VT7SD2CRMR3X-3" value="rightd = sum % 10&lt;div&gt;num = num // 10&amp;nbsp;&lt;/div&gt;&lt;div&gt;sum += rightd&lt;/div&gt;" style="rounded=0;whiteSpace=wrap;html=1;" vertex="1" parent="1">
          <mxGeometry x="41.25" y="470" width="121.12" height="50" as="geometry" />
        </mxCell>
        <mxCell id="dJ0o7yA8VT7SD2CRMR3X-4" value="973 = 9 + 7 + 3" style="text;html=1;align=center;verticalAlign=middle;whiteSpace=wrap;rounded=0;" vertex="1" parent="1">
          <mxGeometry x="350" y="150" width="100" height="50" as="geometry" />
        </mxCell>
        <mxCell id="dJ0o7yA8VT7SD2CRMR3X-5" value="973 % 10 = 3&lt;div&gt;973 // 10 = 97&lt;/div&gt;&lt;div&gt;97 % 10 = 7&lt;/div&gt;&lt;div&gt;97 // 10 = 9&lt;/div&gt;&lt;div&gt;9 % 10 = 9&lt;/div&gt;&lt;div&gt;9 // 10 = 0&lt;/div&gt;&lt;div&gt;0&lt;/div&gt;" style="text;html=1;align=center;verticalAlign=middle;whiteSpace=wrap;rounded=0;" vertex="1" parent="1">
          <mxGeometry x="340" y="210" width="155" height="110" as="geometry" />
        </mxCell>
        <mxCell id="dJ0o7yA8VT7SD2CRMR3X-6" value="sum = 3 + 7 + 9" style="text;html=1;align=center;verticalAlign=middle;whiteSpace=wrap;rounded=0;" vertex="1" parent="1">
          <mxGeometry x="540" y="210" width="142" height="20" as="geometry" />
        </mxCell>
        <mxCell id="dJ0o7yA8VT7SD2CRMR3X-9" value="sum" style="shape=document;whiteSpace=wrap;html=1;boundedLbl=1;" vertex="1" parent="1">
          <mxGeometry x="240" y="420" width="120" height="80" as="geometry" />
        </mxCell>
      </root>
    </mxGraphModel>
  </diagram>
</mxfile>
